<svg width="347" height="101" viewBox="0 0 347 101" fill="none" xmlns="http://www.w3.org/2000/svg">
<path d="M327.483 100.651H265.987C255.21 100.651 246.471 91.9209 246.471 81.1555V19.726C246.471 8.96056 255.21 0.230469 265.987 0.230469H327.483C338.26 0.230469 346.999 8.96056 346.999 19.726V81.1555C347.012 91.9209 338.272 100.651 327.483 100.651Z" fill="url(#paint0_linear_226_13806)"/>
<path d="M290.106 66.9936L280.802 71.3954C280.287 71.6406 279.734 71.7632 279.17 71.7632C278.703 71.7632 278.249 71.6774 277.807 71.5057L268.54 67.9622C267.055 67.3859 266.061 65.9636 266.061 64.3696V33.9737C266.061 31.8525 267.791 30.1236 269.915 30.1236H277.279C279.366 30.1236 281.256 31.6808 281.342 33.7653C281.441 35.9478 279.698 37.7502 277.525 37.7502H273.732C273.732 37.7502 273.695 37.7502 273.695 37.787V61.7457C273.695 61.7457 273.708 61.7702 273.72 61.7825L278.998 63.8056H279.022L284.657 61.1449C284.657 61.1449 284.681 61.1204 284.681 61.1081V27.1564C284.681 26.0774 285.135 25.0352 285.945 24.3117L290.18 20.4617C291.272 19.4685 292.831 19.1988 294.194 19.7505L301.129 22.5829C303.056 23.3676 304.21 25.5256 303.51 27.4874C302.774 29.5474 300.478 30.5528 298.465 29.7313L293.556 27.7204C293.556 27.7204 293.531 27.7204 293.519 27.7204L292.34 28.7994C292.34 28.7994 292.328 28.7994 292.328 28.8239V63.5113C292.316 64.9827 291.457 66.3437 290.106 66.9813V66.9936ZM325.089 32.9192L315.662 28.873C314.582 28.407 313.354 28.4684 312.323 29.0201L303.191 33.9124C301.939 34.5868 301.154 35.8865 301.154 37.3088V71.9717C301.154 71.9717 301.154 71.9962 301.141 71.9962L299.877 73.1242C299.877 73.1242 299.852 73.1365 299.84 73.1365L294.538 70.7823C292.635 69.9363 290.278 70.5984 289.345 72.4621C288.376 74.4239 289.235 76.7781 291.211 77.6487L299.018 81.1064C299.509 81.3271 300.037 81.4375 300.564 81.4375C301.485 81.4375 302.393 81.1064 303.117 80.4688L307.499 76.5452C308.322 75.8095 308.788 74.7673 308.788 73.676V39.5894C308.788 39.5894 308.801 39.5649 308.813 39.5526L314.312 36.6099H314.349L319.774 38.9396C319.774 38.9396 319.799 38.9641 319.799 38.9763V63.0454C319.799 63.0454 319.786 63.0822 319.762 63.0822H316.214C314.128 63.0822 312.237 64.6394 312.152 66.7238C312.053 68.9063 313.796 70.7088 315.969 70.7088H323.579C325.703 70.7088 327.433 68.9799 327.433 66.8587V36.4628C327.433 34.9178 326.5 33.5323 325.089 32.9192Z" fill="white"/>
<path d="M17.8708 22.3371C18.681 22.3371 19.3683 22.0673 19.9207 21.5033C20.4731 20.9515 20.7554 20.2649 20.7554 19.4556C20.7554 18.6464 20.4731 17.9598 19.9207 17.408C19.3683 16.8562 18.681 16.5742 17.8708 16.5742C17.0607 16.5742 16.3734 16.8562 15.821 17.408C15.2686 17.9598 14.9863 18.6464 14.9863 19.4556C14.9863 20.2649 15.2686 20.9515 15.821 21.5033C16.3856 22.0551 17.0607 22.3371 17.8708 22.3371Z" fill="#37156D"/>
<path d="M8.13647 22.3371C8.94659 22.3371 9.63397 22.0673 10.1863 21.5033C10.7387 20.9515 11.021 20.2649 11.021 19.4556C11.021 18.6464 10.7387 17.9598 10.1863 17.408C9.63397 16.8562 8.94659 16.5742 8.13647 16.5742C7.32635 16.5742 6.63898 16.8562 6.08662 17.408C5.53427 17.9598 5.25195 18.6464 5.25195 19.4556C5.25195 20.2649 5.53427 20.9515 6.08662 21.5033C6.63898 22.0551 7.32635 22.3371 8.13647 22.3371Z" fill="#37156D"/>
<path d="M16.1275 27.2537C16.2257 27.0698 16.3361 26.8981 16.4343 26.7019L10.8985 24.4336C10.4566 25.4635 10.0147 26.3709 9.57285 27.1434C9.13097 27.9158 8.60316 28.6638 8.00171 29.3872C7.38798 30.1106 6.87245 30.6746 6.45511 31.1038C6.0255 31.5329 5.33813 32.1582 4.38071 32.9798C3.4233 33.8135 2.68682 34.4879 2.17129 35.0029C0.624697 36.5846 -0.0995016 38.387 0.0109694 40.3979C0.12144 42.4088 0.894738 44.0518 2.33086 45.3392C3.80381 46.7002 5.57134 47.3869 7.64574 47.3869H15.391C17.0112 47.3869 18.3737 46.8351 19.4907 45.7316C20.5954 44.6281 21.1478 43.2425 21.1478 41.5872V27.266H16.1275V27.2537ZM6.25872 41.0723C5.66954 40.5205 5.66954 39.8706 6.25872 39.135C6.29554 39.0982 7.04429 38.4238 8.50496 37.1118C9.96563 35.7999 10.9108 34.8925 11.3527 34.3776C11.7945 33.8626 12.5433 32.8817 13.5989 31.4226C14.2249 30.5643 14.7895 29.6569 15.3419 28.7128V41.5627H7.64574C7.04429 41.5627 6.59013 41.4033 6.25872 41.0723Z" fill="#37156D"/>
<path d="M30.8073 21.639C30.9055 21.6267 30.9914 21.639 31.0896 21.6144L33.164 20.891C33.6796 20.7439 34.1337 20.4619 34.5388 20.0572C34.7106 19.8856 34.8334 19.6894 34.9316 19.481C35.0298 19.5668 35.128 19.6526 35.2507 19.7139C35.5698 19.8611 35.889 19.8978 36.2204 19.7997L37.9266 19.1744C39.0067 18.7821 39.5468 18.0709 39.5468 17.0164V12.5656C39.5468 11.8176 39.1663 11.4375 38.4175 11.4375C37.6688 11.4375 37.2883 11.8176 37.2883 12.5656V16.8325L35.398 17.5069C35.2998 17.5437 35.2139 17.5927 35.128 17.654V14.1841C35.128 13.853 35.0052 13.5832 34.772 13.3748C34.5265 13.1664 34.2319 13.056 33.876 13.056C33.5445 13.056 33.2745 13.1664 33.0413 13.3748C32.8203 13.5832 32.7099 13.853 32.7099 14.1841V18.451L30.6355 19.1867V15.0791C30.6355 14.7481 30.525 14.4661 30.3163 14.2208C30.1077 13.9756 29.8376 13.8653 29.5062 13.8653C29.1748 13.8653 28.9048 13.9879 28.6961 14.2208C28.4874 14.4661 28.377 14.7481 28.377 15.0791V19.53C28.377 20.1921 28.5242 20.6948 28.8311 21.0627C29.3098 21.6267 29.9726 21.8106 30.8073 21.639Z" fill="#37156D"/>
<path d="M27.2849 52.7461C26.4748 52.7461 25.7874 53.0281 25.2351 53.5799C24.6827 54.1316 24.4004 54.8183 24.4004 55.6275C24.4004 56.4368 24.6827 57.1234 25.2351 57.6752C25.7874 58.2269 26.4748 58.5089 27.2849 58.5089C28.095 58.5089 28.7824 58.2269 29.3348 57.6752C29.8871 57.1234 30.1694 56.4368 30.1694 55.6275C30.1694 54.8183 29.8871 54.1316 29.3348 53.5799C28.7824 53.0159 28.095 52.7461 27.2849 52.7461Z" fill="#37156D"/>
<path d="M37.0193 52.7461C36.2092 52.7461 35.5218 53.0281 34.9694 53.5799C34.4171 54.1316 34.1348 54.8183 34.1348 55.6275C34.1348 56.4368 34.4171 57.1234 34.9694 57.6752C35.5218 58.2269 36.2092 58.5089 37.0193 58.5089C37.8294 58.5089 38.5168 58.2269 39.0691 57.6752C39.6215 57.1234 39.9038 56.4368 39.9038 55.6275C39.9038 54.8183 39.6215 54.1316 39.0691 53.5799C38.5168 53.0159 37.8294 52.7461 37.0193 52.7461Z" fill="#37156D"/>
<path d="M50.5828 41.5744H42.9971V26.591H37.1913V41.5744H21.1484V47.374H37.1422C38.7256 47.374 40.1004 46.8223 41.2664 45.7188C42.4325 44.6152 43.0094 43.2542 43.0094 41.6235V47.374H50.5337C52.1171 47.374 53.4919 46.8223 54.658 45.7188C55.8241 44.6152 56.401 43.2542 56.401 41.6235V12.8828H50.5951V41.5744H50.5828Z" fill="#37156D"/>
<path d="M89.9472 25.7082C87.3082 25.5978 85.111 26.4071 83.3312 28.136C81.6741 29.7177 80.8395 31.7531 80.8395 34.2176V41.5744H67.718V12.8828H61.9121V41.6235C61.9121 43.242 62.489 44.603 63.6551 45.7188C64.8212 46.8223 66.1959 47.374 67.7793 47.374H80.7781C82.3615 47.374 83.7363 46.8223 84.9023 45.7188C85.6265 45.0321 86.093 44.2351 86.363 43.34V47.374H89.9595C91.8007 47.374 93.5559 47.092 95.213 46.5157C96.87 45.9394 98.3184 44.9463 99.5582 43.524C100.798 42.1016 101.412 40.3851 101.412 38.3497C101.412 35.3334 99.8037 32.1209 96.6 28.7368C94.8079 26.8362 92.5862 25.8185 89.9472 25.7082ZM94.2187 40.6058C93.2736 41.2556 91.862 41.5744 89.984 41.5744H86.6576V34.2176C86.6576 33.4083 86.9031 32.7585 87.3818 32.2803C87.8605 31.7285 88.6338 31.471 89.7017 31.5078C90.7696 31.5446 91.6779 31.9492 92.4144 32.7217C94.5502 34.9287 95.618 36.8293 95.618 38.411C95.6303 39.2325 95.1516 39.9559 94.2187 40.6058Z" fill="#37156D"/>
<path d="M109.021 41.5744H101.436V47.374H108.96C110.543 47.374 111.918 46.8223 113.084 45.7188C114.25 44.6152 114.827 43.2542 114.827 41.6235V12.8828H109.021V41.5744Z" fill="#37156D"/>
<path d="M120.363 47.374C122.131 47.374 123.542 46.7977 124.598 45.6574C125.654 44.5171 126.169 43.058 126.169 41.2924V12.8828H120.363V47.374Z" fill="#37156D"/>
<path d="M150.902 22.3371C151.712 22.3371 152.4 22.0673 152.952 21.5033C153.504 20.9515 153.787 20.2649 153.787 19.4556C153.787 18.6464 153.504 17.9598 152.952 17.408C152.4 16.8562 151.712 16.5742 150.902 16.5742C150.092 16.5742 149.405 16.8562 148.852 17.408C148.3 17.9598 148.018 18.6464 148.018 19.4556C148.018 20.2649 148.3 20.9515 148.852 21.5033C149.417 22.0551 150.092 22.3371 150.902 22.3371Z" fill="#37156D"/>
<path d="M160.648 22.3371C161.458 22.3371 162.146 22.0673 162.698 21.5033C163.25 20.9515 163.533 20.2649 163.533 19.4556C163.533 18.6464 163.25 17.9598 162.698 17.408C162.146 16.8562 161.458 16.5742 160.648 16.5742C159.838 16.5742 159.151 16.8562 158.598 17.408C158.046 17.9598 157.764 18.6464 157.764 19.4556C157.764 20.2649 158.046 20.9515 158.598 21.5033C159.151 22.0551 159.838 22.3371 160.648 22.3371Z" fill="#37156D"/>
<path d="M158.905 27.2537C159.003 27.0698 159.113 26.8981 159.212 26.7019L153.676 24.4336C153.234 25.4635 152.792 26.3709 152.35 27.1434C151.908 27.9158 151.38 28.6638 150.779 29.3872C150.165 30.1106 149.65 30.6746 149.232 31.1038C148.803 31.5329 148.115 32.1582 147.158 32.9798C146.201 33.8135 145.464 34.4879 144.949 35.0029C143.402 36.5846 142.678 38.387 142.788 40.3979C142.899 42.4088 143.672 44.0518 145.108 45.3392C146.581 46.7002 148.349 47.3869 150.423 47.3869H158.168C159.789 47.3869 161.151 46.8351 162.268 45.7316C163.373 44.6281 163.925 43.2425 163.925 41.5872V27.266H158.905V27.2537ZM149.024 41.0723C148.435 40.5205 148.435 39.8706 149.024 39.135C149.061 39.0982 149.809 38.4238 151.27 37.1118C152.731 35.7999 153.676 34.8925 154.118 34.3776C154.56 33.8626 155.308 32.8817 156.364 31.4226C156.99 30.5643 157.555 29.6569 158.107 28.7128V41.5627H150.411C149.822 41.5627 149.355 41.4033 149.024 41.0723Z" fill="#37156D"/>
<path d="M171.768 19.909C172.136 20.0561 172.529 20.0684 172.934 19.9581L183.895 15.9241C184.264 15.8137 184.534 15.5808 184.693 15.2374C184.853 14.8941 184.89 14.514 184.779 14.1094C184.669 13.7415 184.423 13.4841 184.055 13.3369C183.687 13.1898 183.294 13.1653 182.889 13.2756L171.928 17.2606C171.56 17.3709 171.289 17.6161 171.13 17.984C170.97 18.3518 170.934 18.7442 171.044 19.1488C171.154 19.5044 171.4 19.7619 171.768 19.909Z" fill="#37156D"/>
<path d="M206.077 18.7934C206.445 18.9405 206.838 18.965 207.243 18.8424L218.204 14.8084C218.572 14.6981 218.842 14.4651 219.002 14.1218C219.161 13.7785 219.198 13.3984 219.088 12.9938C218.977 12.6259 218.732 12.3684 218.364 12.2213C217.995 12.0742 217.603 12.0496 217.198 12.1723L206.236 16.1572C205.868 16.2676 205.598 16.5128 205.438 16.8806C205.279 17.2485 205.242 17.6408 205.353 18.0454C205.475 18.3888 205.709 18.6463 206.077 18.7934Z" fill="#37156D"/>
<path d="M219.909 26.5913V41.5746H215.649V26.5913H209.844V41.5746H205.584V26.5913H199.778V41.5746H179.145C178.114 40.5692 177.242 39.6006 176.543 38.6687C175.806 37.7001 175.303 36.8908 175.021 36.2655C174.738 35.6401 174.554 35.0639 174.468 34.5489C174.37 34.0339 174.358 33.6538 174.407 33.4208C174.468 33.1879 174.542 33.004 174.652 32.8936C174.984 32.5625 175.561 32.2928 176.371 32.0966C177.181 31.9004 178.482 31.8636 180.274 31.9863C182.066 32.1211 184.042 32.5135 186.227 33.1756L187.884 27.6457C179.55 25.1076 173.756 25.5123 170.504 28.8596C168.994 30.331 168.306 32.0721 168.454 34.083C168.601 36.0938 169.252 38.0679 170.418 40.0297C170.724 40.5447 171.068 41.0597 171.424 41.5746H163.912V47.3743H199.717C201.3 47.3743 202.675 46.8225 203.841 45.719C204.516 45.0814 204.971 44.3457 205.253 43.5242V47.3743H209.794C211.378 47.3743 212.753 46.8225 213.919 45.719C214.594 45.0814 215.048 44.3457 215.33 43.5242V47.3743H219.872C221.455 47.3743 222.83 46.8225 223.996 45.719C225.162 44.6155 225.739 43.2545 225.739 41.6237V26.5913H219.909Z" fill="#37156D"/>

<defs>
<linearGradient id="paint0_linear_226_13806" x1="279.244" y1="83.7058" x2="358.134" y2="-66.6148" gradientUnits="userSpaceOnUse">
<stop stop-color="#472C99"/>
<stop offset="0.57" stop-color="#F09B37"/>
</linearGradient>
</defs>
</svg>
